# File created by Blade
# Date/Time:  Tue Jan 27 17:27:32 2015
# Frame Rate: 120.000 fps
#------------------------------------------------------
:FULLY-SPECIFIED
:DEGREES
1334
root 3.331026 36.809003 -0.517222 4.859330 10.276575 2.181140
Spine 3.555596 12.859409 -7.458052
Head 2.834837 -10.359236 5.018589
LeftShoulder -4.305595 -8.278621 9.747896
LeftArm -11.254000 -28.884063 -47.761190
LeftForeArm 4.662813 -0.000000 110.579554
LeftHand -15.434923 -0.000000 37.065867
LeftHandThumb1 -26.253704 0.000000 33.147579
RightShoulder -2.867401 -17.438622 3.243394
RightArm 34.612666 -31.024427 48.355029
RightForeArm 183.191537 -0.000000 36.038817
RightHand -0.919291 -0.000000 4.983737
RightHandThumb1 -24.326973 -0.000000 -32.862282
LeftUpLeg -5.038049 3.573059 -4.133557
LeftLeg 8.132450 -0.000000 -0.000000
LeftFoot -15.433412 -4.821141 -17.093727
LeftToeBase 13.239065 -0.000000 -0.000000
RightUpLeg -11.943411 -12.641798 -7.346870
RightLeg 29.278812 -0.000000 -0.000000
RightFoot -21.635277 -3.562979 8.326459
RightToeBase 0.241605 -0.000000 -0.000000
1335
root 3.298857 36.807815 -0.517717 4.861707 10.271660 2.221017
Spine 3.528599 12.818689 -7.518244
Head 2.824872 -10.431375 5.064382
LeftShoulder -4.285155 -8.260202 9.754281
LeftArm -11.312148 -29.160648 -47.808433
LeftForeArm 4.662740 -0.000000 110.536867
LeftHand -15.365827 -0.000000 36.823354
LeftHandThumb1 -26.253704 0.000000 33.147579
RightShoulder -2.906763 -17.513541 3.241000
RightArm 34.583475 -31.300104 48.396922
RightForeArm 182.665947 0.000000 35.796189
RightHand -0.995032 0.000000 4.657660
RightHandThumb1 -24.326973 -0.000000 -32.862282
LeftUpLeg -5.098246 3.558236 -4.138962
LeftLeg 8.245626 -0.000000 -0.000000
LeftFoot -15.458960 -4.735769 -17.033336
LeftToeBase 13.238647 -0.000000 -0.000000
RightUpLeg -11.837810 -12.049292 -7.431370
RightLeg 29.171233 -0.000000 -0.000000
RightFoot -21.360048 -3.200459 8.319512
RightToeBase 0.446314 -0.000000 -0.000000
1336
root 3.260169 36.806581 -0.519516 4.859734 10.272366 2.248759
Spine 3.518018 12.754264 -7.581502
Head 2.794190 -10.428137 5.153931
LeftShoulder -4.279006 -8.259199 9.738848
LeftArm -11.377464 -29.416173 -47.760942
LeftForeArm 4.633684 -0.000000 110.498806
LeftHand -15.367847 -0.000000 36.744689
LeftHandThumb1 -26.253704 0.000000 33.147579
RightShoulder -2.900850 -17.565583 3.211836
RightArm 34.558372 -31.609895 48.480831
RightForeArm 182.203804 -0.000000 35.488389
RightHand -0.962758 -0.000000 4.502465
RightHandThumb1 -24.326973 -0.000000 -32.862282
LeftUpLeg -5.116968 3.493729 -4.114295
LeftLeg 8.266493 -0.000000 -0.000000
LeftFoot -15.491345 -4.601377 -16.920897
LeftToeBase 13.338212 -0.000000 -0.000000
RightUpLeg -11.727186 -11.472176 -7.490188
RightLeg 29.031384 -0.000000 -0.000000
RightFoot -21.010758 -2.853364 8.441460
RightToeBase 0.276984 -0.000000 -0.000000
1337
root 3.223346 36.806509 -0.519682 4.859131 10.256116 2.264466
Spine 3.489556 12.690975 -7.607215
Head 2.842594 -10.429649 5.112857
LeftShoulder -4.303030 -8.245368 9.726162
LeftArm -11.430723 -29.636765 -47.766738
LeftForeArm 4.691390 -0.000000 110.425875
LeftHand -15.323912 -0.000000 36.748247
LeftHandThumb1 -26.253704 0.000000 33.147579
RightShoulder -2.895279 -17.619381 3.175641
RightArm 34.512345 -31.903200 48.578564
RightForeArm 181.750708 -0.000000 35.166757
RightHand -0.831411 0.000000 4.220012
RightHandThumb1 -24.326973 -0.000000 -32.862282
LeftUpLeg -5.131865 3.492484 -4.078788
LeftLeg 8.278091 -0.000000 -0.000000
LeftFoot -15.482132 -4.561839 -16.905539
LeftToeBase 13.391065 -0.000000 -0.000000
RightUpLeg -11.559972 -10.851357 -7.529995
RightLeg 28.754347 -0.000000 -0.000000
RightFoot -20.653161 -2.549609 8.586724
RightToeBase 0.241862 -0.000000 -0.000000
1338
root 3.180283 36.806082 -0.518963 4.874812 10.209536 2.270426
Spine 3.436578 12.674937 -7.667204
Head 2.791952 -10.438546 5.199590
LeftShoulder -4.323186 -8.228254 9.696507
LeftArm -11.482049 -29.865625 -47.677113
LeftForeArm 4.686372 -0.000000 110.414372
LeftHand -15.379415 -0.000000 36.453783
LeftHandThumb1 -26.253704 0.000000 33.147579
RightShoulder -2.898407 -17.639383 3.166497
RightArm 34.453330 -32.197319 48.688328
RightForeArm 181.255868 -0.000000 34.760231
RightHand -0.788463 0.000000 3.820299
RightHandThumb1 -24.326973 -0.000000 -32.862282
LeftUpLeg -5.177982 3.526909 -4.031942
LeftLeg 8.327873 -0.000000 -0.000000
LeftFoot -15.494098 -4.519605 -16.912529
LeftToeBase 13.431958 -0.000000 -0.000000
RightUpLeg -11.443768 -10.292767 -7.535856
RightLeg 28.513938 -0.000000 -0.000000
RightFoot -20.264992 -2.054880 8.973559
RightToeBase 0.080623 -0.000000 -0.000000
1339
root 3.139798 36.806765 -0.513679 4.885649 10.127361 2.307390
Spine 3.370004 12.685379 -7.754829
Head 2.840770 -10.436278 5.170457
LeftShoulder -4.332385 -8.204631 9.656719
LeftArm -11.574011 -30.076430 -47.549842
LeftForeArm 4.725487 0.000000 110.367828
LeftHand -15.361647 -0.000000 36.187353
LeftHandThumb1 -26.253704 0.000000 33.147579
RightShoulder -2.868352 -17.699363 3.159548
RightArm 34.370869 -32.468790 48.836352
RightForeArm 181.105176 -0.000000 34.369057
RightHand -0.551293 -0.000000 3.519759
RightHandThumb1 -24.326973 -0.000000 -32.862282
LeftUpLeg -5.175304 3.529850 -4.010036
LeftLeg 8.296075 -0.000000 -0.000000
LeftFoot -15.484306 -4.448204 -16.936363
LeftToeBase 13.622362 -0.000000 -0.000000
RightUpLeg -11.324757 -9.762882 -7.566244
RightLeg 28.279963 -0.000000 -0.000000
RightFoot -20.036442 -1.817379 8.946770
RightToeBase 0.164054 -0.000000 -0.000000
1340
root 3.094696 36.806919 -0.509930 4.898495 10.019653 2.313909
Spine 3.309515 12.748870 -7.812237
Head 2.838821 -10.460327 5.195481
LeftShoulder -4.331632 -8.181398 9.622021
LeftArm -11.633743 -30.246679 -47.449979
LeftForeArm 4.847914 -0.000000 110.274678
LeftHand -15.216753 0.000000 36.458657
LeftHandThumb1 -26.253704 0.000000 33.147579
RightShoulder -2.902028 -17.736147 3.173991
RightArm 34.321760 -32.743578 48.944572
RightForeArm 180.819196 -0.000000 33.922616
RightHand -0.500281 0.000000 2.993664
RightHandThumb1 -24.326973 -0.000000 -32.862282
LeftUpLeg -5.229949 3.692008 -3.974101
LeftLeg 8.387228 -0.000000 -0.000000
LeftFoot -15.517810 -4.435742 -16.895543
LeftToeBase 13.697943 -0.000000 -0.000000
RightUpLeg -11.196677 -9.276177 -7.546484
RightLeg 27.968384 -0.000000 -0.000000
RightFoot -19.888659 -1.696649 8.669420
RightToeBase 0.011656 -0.000000 -0.000000
1341
root 3.056536 36.807106 -0.492864 4.820543 9.959951 2.334675
Spine 3.330141 12.764219 -7.842596
Head 2.885010 -10.442079 5.154931
LeftShoulder -4.353438 -8.152637 9.577941
LeftArm -11.701124 -30.410962 -47.353537
LeftForeArm 4.831189 -0.000000 110.217401
LeftHand -15.128065 -0.000000 36.244591
LeftHandThumb1 -26.253704 0.000000 33.147579
RightShoulder -2.896891 -17.766117 3.196708
RightArm 34.226614 -33.051939 49.031300
RightForeArm 180.642385 0.000000 33.455656
RightHand -0.502530 -0.000000 2.811418
RightHandThumb1 -24.326973 -0.000000 -32.862282
LeftUpLeg -5.113219 3.711390 -3.930066
LeftLeg 8.333914 -0.000000 -0.000000
LeftFoot -15.498875 -4.398455 -16.939368
LeftToeBase 13.758241 -0.000000 -0.000000
RightUpLeg -10.923803 -8.893816 -7.562393
RightLeg 27.612203 -0.000000 -0.000000
RightFoot -19.909656 -1.662411 8.554023
RightToeBase 0.099032 -0.000000 -0.000000
1342
root 3.010161 36.807539 -0.485484 4.837200 9.895245 2.349881
Spine 3.264182 12.782846 -7.903243
Head 2.845812 -10.473159 5.146482
LeftShoulder -4.398294 -8.153318 9.549977
LeftArm -11.758627 -30.596955 -47.246805
LeftForeArm 4.632250 -0.000000 110.177590
LeftHand -15.129543 -0.000000 35.866858
LeftHandThumb1 -26.253704 0.000000 33.147579
RightShoulder -2.895996 -17.758848 3.143535
RightArm 33.973230 -33.120352 49.570102
RightForeArm 180.119584 -0.000000 32.856704
RightHand -0.530403 -0.000000 2.143245
RightHandThumb1 -24.326973 -0.000000 -32.862282
LeftUpLeg -5.118139 3.672481 -3.874611
LeftLeg 8.315041 -0.000000 -0.000000
LeftFoot -15.526343 -4.321951 -16.978840
LeftToeBase 13.910245 -0.000000 -0.000000
RightUpLeg -10.771775 -8.527063 -7.534653
RightLeg 27.252959 -0.000000 -0.000000
RightFoot -19.928821 -1.822261 8.653128
RightToeBase 0.174648 -0.000000 -0.000000
1343
root 2.962142 36.807466 -0.478666 4.859575 9.797423 2.366948
Spine 3.187320 12.815654 -7.983144
Head 2.830770 -10.434387 5.126414
LeftShoulder -4.459242 -8.126492 9.556629
LeftArm -11.778906 -30.730137 -47.190347
LeftForeArm 4.729373 -0.000000 110.091793
LeftHand -15.095540 -0.000000 35.788321
LeftHandThumb1 -26.253704 0.000000 33.147579
RightShoulder -2.891052 -17.784387 3.146199
RightArm 33.839267 -33.389747 49.755934
RightForeArm 180.166898 -0.000000 32.451660
RightHand -0.205370 -0.000000 1.748765
RightHandThumb1 -24.326973 -0.000000 -32.862282
LeftUpLeg -5.146896 3.729152 -3.827154
LeftLeg 8.332774 -0.000000 -0.000000
LeftFoot -15.537969 -4.286706 -17.023205
LeftToeBase 14.043623 -0.000000 -0.000000
RightUpLeg -10.642649 -8.195901 -7.497906
RightLeg 26.896253 -0.000000 -0.000000
RightFoot -19.925111 -2.050965 8.822913
RightToeBase 0.346928 -0.000000 -0.000000
